<?xml version="1.0" encoding="UTF-8" standalone="no"?>
<svg xmlns:dc="http://purl.org/dc/elements/1.1/" xmlns:cc="http://creativecommons.org/ns#" xmlns:rdf="http://www.w3.org/1999/02/22-rdf-syntax-ns#" xmlns:svg="http://www.w3.org/2000/svg" xmlns="http://www.w3.org/2000/svg" xmlns:sodipodi="http://sodipodi.sourceforge.net/DTD/sodipodi-0.dtd" xmlns:inkscape="http://www.inkscape.org/namespaces/inkscape" width="97.771477mm" height="35.345688mm" viewBox="0 0 97.771477 35.345688" version="1.1" id="svg142" inkscape:version="1.0.2 (e86c870879, 2021-01-15)" sodipodi:docname="logo-nb.svg">
  <defs id="defs136"/>
  <sodipodi:namedview id="base" pagecolor="#ffffff" bordercolor="#666666" borderopacity="1.0" inkscape:pageopacity="0.0" inkscape:pageshadow="2" inkscape:zoom="0.35" inkscape:cx="252.04701" inkscape:cy="71.062565" inkscape:document-units="mm" inkscape:current-layer="layer1" inkscape:document-rotation="0" showgrid="false" fit-margin-top="0" fit-margin-left="0" fit-margin-right="0" fit-margin-bottom="0" inkscape:window-width="1920" inkscape:window-height="1005" inkscape:window-x="0" inkscape:window-y="27" inkscape:window-maximized="1"/>
  <metadata id="metadata139">
    <rdf:RDF>
      <cc:Work rdf:about="">
        <dc:format>image/svg+xml</dc:format>
        <dc:type rdf:resource="http://purl.org/dc/dcmitype/StillImage"/>
        <dc:title/>
      </cc:Work>
    </rdf:RDF>
  </metadata>
  <g inkscape:label="Calque 1" inkscape:groupmode="layer" id="layer1" transform="translate(-39.145894,-129.3647)">
    <g id="g70" transform="matrix(0.26458333,0,0,0.26458333,-21.718855,104.38803)">
      <g id="g20">
        <path d="m 349.02,215.4 h 2.45 l 3.64,8.86 h 0.04 v -8.86 h 1.9 v 11.89 h -2.45 l -3.64,-9.09 h -0.04 v 9.09 h -1.9 z" id="path2"/>
        <path d="m 379.91,221.34 c 0,-4.24 1.27,-6.18 4.15,-6.18 2.89,0 4.15,1.93 4.15,6.18 0,4.25 -1.26,6.18 -4.15,6.18 -2.89,0 -4.15,-1.93 -4.15,-6.18 z m 6.29,-0.05 c 0,-3.99 -0.95,-4.69 -2.15,-4.69 -1.2,0 -2.15,0.7 -2.15,4.69 0,4.1 0.95,4.8 2.15,4.8 1.21,0 2.15,-0.7 2.15,-4.8 z" id="path4"/>
        <path d="m 411.07,215.4 h 4.43 c 1.76,0 3.18,0.83 3.18,3.06 0,1.53 -0.72,2.72 -2.09,2.92 v 0.03 c 1.25,0.12 1.9,0.77 1.97,2.43 0.02,0.77 0.04,1.7 0.07,2.41 0.03,0.58 0.33,0.86 0.6,1.03 h -2.27 c -0.2,-0.22 -0.28,-0.58 -0.33,-1.05 -0.07,-0.72 -0.06,-1.38 -0.09,-2.25 -0.03,-1.3 -0.46,-1.86 -1.83,-1.86 h -1.64 v 5.16 h -2 z m 3.61,5.29 c 1.28,0 2.01,-0.73 2.01,-1.93 0,-1.26 -0.58,-1.93 -1.9,-1.93 h -1.71 v 3.86 z" id="path6"/>
        <path d="m 441.6,215.4 h 3.13 l 2.22,8.81 h 0.04 l 2.18,-8.81 h 3.06 v 11.89 h -1.9 v -9.89 h -0.04 l -2.54,9.89 h -1.69 l -2.53,-9.89 h -0.04 v 9.89 h -1.9 V 215.4 Z" id="path8"/>
        <path d="m 477.76,215.4 h 2.57 l 3.31,11.89 h -2.09 l -0.77,-2.91 h -3.68 l -0.81,2.91 h -2.1 z m 2.67,7.46 -1.44,-5.86 h -0.04 l -1.5,5.86 z" id="path10"/>
        <path d="m 505.6,215.4 h 2.45 l 3.64,8.86 h 0.04 v -8.86 h 1.9 v 11.89 h -2.45 l -3.64,-9.09 h -0.03 v 9.09 h -1.9 V 215.4 Z" id="path12"/>
        <path d="m 536.78,215.4 h 3.57 c 3.95,0 4.44,2.43 4.44,5.94 0,3.51 -0.49,5.95 -4.44,5.95 h -3.57 z m 2.01,10.45 h 1.66 c 1.65,0 2.34,-1.03 2.34,-4.51 0,-3.35 -0.6,-4.51 -2.34,-4.51 h -1.66 z" id="path14"/>
        <path d="m 567.56,215.4 h 2.01 v 11.89 h -2.01 z" id="path16"/>
        <path d="m 592.64,215.4 h 6.79 v 1.6 h -4.79 v 3.3 h 4.51 v 1.6 h -4.51 v 3.8 h 4.93 v 1.6 h -6.93 z" id="path18"/>
      </g>
      <g id="g42">
        <path d="m 370.81,105.84 h 8.79 v 30.99 c 0,9.84 -3.39,14.52 -14.89,14.52 -11.62,0 -15.01,-4.68 -15.01,-14.52 v -30.99 h 8.79 v 30.28 c 0,4.27 0.31,8.53 6.28,8.53 5.72,0 6.03,-4.27 6.03,-8.53 v -30.28 z" id="path22"/>
        <path d="m 405.35,105.84 h 8.79 v 44.44 h -9.17 l -6.85,-15.82 c -2.32,-5.27 -4.21,-10.67 -6.28,-17.66 h -0.13 c 0.31,3.67 0.69,8.18 0.94,12.68 0.25,4.44 0.44,8.89 0.44,12.44 v 8.35 h -8.79 v -44.44 h 9.11 l 6.85,16.18 c 2.26,5.16 4.15,10.43 6.28,17.66 h 0.13 c -0.31,-4.03 -0.63,-8.35 -0.88,-12.62 -0.25,-4.27 -0.44,-8.53 -0.44,-12.5 z" id="path24"/>
        <path d="m 418.99,150.28 v -44.44 h 8.79 v 44.44 z" id="path26"/>
        <path d="m 452.59,105.84 h 9.42 l -10.18,44.44 h -11.75 l -10.43,-44.44 h 9.42 l 5.53,28.5 c 0.5,2.49 0.82,5.04 1.07,7.58 0.13,1.18 0.38,2.43 0.38,3.67 h 0.13 c 0,-1.24 0.25,-2.49 0.38,-3.67 0.25,-2.55 0.57,-5.1 1.07,-7.58 z" id="path28"/>
        <path d="m 463.71,150.28 v -44.44 h 21.36 v 3.44 H 467.8 v 16 h 15.7 v 3.44 h -15.7 v 18.13 h 17.59 v 3.44 h -21.68 z" id="path30"/>
        <path d="m 491.66,129.37 v 20.92 h -4.08 v -44.44 h 9.11 c 8.6,0 14.51,2.37 14.51,11.38 0,4.33 -1.95,9.42 -6.91,10.43 v 0.12 c 5.47,1.3 6.22,5.27 6.28,10.84 0.13,2.13 -0.19,9.95 2.14,11.14 v 0.53 h -4.46 c -1.76,-3.73 -1.63,-11.32 -1.88,-14.58 -0.44,-5.93 -5.15,-6.34 -10.49,-6.34 z m 0,-3.44 h 7.16 c 1.38,0 8.29,-0.47 8.29,-8.41 0,-6.52 -3.14,-8.24 -9.55,-8.24 h -5.9 z" id="path32"/>
        <path d="m 528.15,126.05 c 6.91,2.73 12.06,4.74 12.06,12.8 0,7.64 -5.28,12.5 -13.5,12.5 -8.6,0 -13.13,-5.75 -12.94,-13.63 h 4.02 c -0.06,5.57 2.39,10.19 8.86,10.19 5.72,0 9.48,-3.44 9.48,-8.95 0,-6.7 -5.15,-7.76 -10.55,-9.78 -6.34,-2.37 -10.87,-5.04 -10.87,-12.15 0,-7.23 4.58,-12.27 12.25,-12.27 7.35,0 12.19,4.8 12,11.79 H 535 c 0.25,-4.92 -2.83,-8.35 -8.1,-8.35 -5.34,0 -8.1,3.73 -8.1,8.59 0,4.39 1.51,6.1 5.71,7.82 z" id="path34"/>
        <path d="m 543.86,150.28 v -44.44 h 4.08 v 44.44 z" id="path36"/>
        <path d="m 550.33,109.28 v -3.44 h 25.44 v 3.44 h -10.68 v 41 h -4.08 v -41 z" id="path38"/>
        <path d="m 577.4,150.28 v -44.44 h 21.36 v 3.44 h -17.27 v 16 h 15.7 v 3.44 h -15.7 v 18.13 h 17.59 v 3.44 H 577.4 Z m 5.84,-47.64 6.97,-8.24 h 4.9 l -8.67,8.24 z" id="path40"/>
      </g>
      <g id="g58">
        <path d="m 348.96,165.17 h 8.58 c 5.44,0 10.3,0.3 14.21,4.21 3.2,3.56 4.61,10.19 4.61,14.64 0,5.04 0.13,11.73 -1.86,16.53 -2.94,7.64 -8.13,9.07 -16.13,9.07 h -9.41 z m 4.16,41 h 4.99 c 2.37,0 5.18,0 7.36,-0.95 6.4,-2.73 6.72,-12.5 6.72,-17.89 0,-5.63 0.13,-14.52 -6.21,-17.72 -2.5,-1.24 -6.4,-1.13 -9.28,-1.01 h -3.58 z" id="path44"/>
        <path d="m 382.95,209.61 v -44.44 h 21.76 v 3.44 h -17.6 v 16 h 16 v 3.44 h -16 v 18.13 h 17.92 v 3.44 h -22.08 z" id="path46"/>
        <path d="m 433.7,190.47 v 19.14 h -8.96 v -44.44 h 16.96 c 7.74,0 13.63,2.49 13.63,10.67 0,4.86 -1.34,9.96 -7.36,10.73 v 0.12 c 5.31,0.65 6.91,3.79 6.91,8.06 0,1.84 -0.26,12.74 1.92,14.04 v 0.83 h -9.86 c -1.09,-2.84 -0.89,-8.3 -0.96,-11.26 -0.06,-2.73 0,-6.46 -3.07,-7.29 -2.43,-0.65 -5.06,-0.59 -7.62,-0.59 h -1.59 z m 0,-6.52 h 7.04 c 2.94,-0.18 5.25,-1.96 5.25,-6.4 0,-4.98 -2.24,-5.81 -5.63,-5.87 h -6.66 z" id="path48"/>
        <path d="m 462.24,183.83 c 0.38,-11.32 1.34,-19.73 15.68,-19.73 14.34,0 15.3,8.41 15.68,19.73 v 6.34 c 0,11.85 -0.96,20.5 -15.68,20.5 -14.72,0 -15.68,-8.65 -15.68,-20.5 z m 9.22,10.49 c 0,3.67 0.32,9.66 6.46,9.66 6.4,0 6.46,-6.1 6.46,-10.37 v -11.38 c 0,-3.56 0.19,-11.44 -6.46,-11.44 -7.04,0 -6.46,7.76 -6.46,11.2 z" id="path50"/>
        <path d="m 522.02,165.17 h 8.96 v 30.99 c 0,9.84 -3.46,14.52 -15.17,14.52 -11.84,0 -15.3,-4.68 -15.3,-14.52 v -30.99 h 8.96 v 30.28 c 0,4.27 0.32,8.53 6.4,8.53 5.82,0 6.14,-4.27 6.14,-8.53 v -30.28 z" id="path52"/>
        <path d="m 538.08,209.61 v -44.44 h 25.21 v 6.52 h -16.25 v 11.2 h 14.97 v 6.52 h -14.97 v 13.69 h 16.25 v 6.52 h -25.21 z" id="path54"/>
        <path d="m 590.49,165.17 h 8.96 v 44.44 h -9.34 l -6.98,-15.82 c -2.37,-5.27 -4.29,-10.67 -6.4,-17.66 h -0.13 c 0.32,3.67 0.7,8.18 0.96,12.68 0.26,4.44 0.45,8.89 0.45,12.44 v 8.35 h -8.96 v -44.44 h 9.28 l 6.98,16.18 c 2.3,5.16 4.22,10.43 6.4,17.66 h 0.13 c -0.32,-4.03 -0.64,-8.35 -0.89,-12.62 -0.26,-4.27 -0.45,-8.53 -0.45,-12.5 v -8.71 z" id="path56"/>
      </g>
      <g id="g68">
        <path d="m 345.56,115.03 c 0,0 -2.16,-9.82 -13.3,-9.82 -11.13,0 -16.85,0.16 -16.85,0.16 v 44.19 c 0,0 13.92,-15.38 30.16,-3.6 0,0.16 0,-30.77 0,-30.77 v -0.16 z" id="path60"/>
        <path d="m 345.56,165.37 c 0,0 -22.12,-13.84 -30.16,11.27 v 51.07 l 18.56,0.14 c 0,0 9.28,-0.57 11.75,-9.7 -0.15,0.14 -0.15,-52.78 -0.15,-52.78 z" id="path62"/>
        <path d="m 295.77,105.05 -33.71,0.15 0.15,63.25 c 0,0 0.81,14.36 10.93,17.54 h -0.01 c 0,0 0.04,0.01 0.11,0.03 1.29,0.39 2.72,0.61 4.33,0.59 0.7,0.04 1.47,0.04 2.28,0.01 3.39,0.14 14.89,-0.68 16.07,-18.33 -0.15,-0.14 -0.15,-63.24 -0.15,-63.24 z" id="path64"/>
        <path d="m 295.68,214.5 0.04,-12.98 -0.19,0.21 c -1.1,0.36 -14.18,4.47 -27.22,1.73 0.03,-0.03 0.06,-0.05 0.08,-0.05 -0.56,-0.09 -1.11,-0.2 -1.65,-0.32 -3.53,-0.9 -7.01,-2.33 -10.21,-4.5 -10.89,-7.9 -13.48,-22.61 -14.09,-29.55 -0.02,-15.81 -0.34,-63.84 -0.34,-63.84 0,0 -8.97,0.77 -11.91,10.83 0.16,-0.15 -0.15,99.9 -0.15,99.9 0,0 1.55,11.13 12.37,11.91 l 53.35,0.15 z" id="path66"/>
      </g>
    </g>
  </g>
</svg>